<svg width="34" height="37" viewBox="0 0 34 37" fill="none" xmlns="http://www.w3.org/2000/svg">
<path d="M9.03916 11.0999H21.9632L21.6357 14.7999H12.8113C12.3206 14.7999 11.8501 14.9948 11.5032 15.3418C11.1562 15.6887 10.9613 16.1593 10.9613 16.6499C10.9613 17.1406 11.1562 17.6111 11.5032 17.9581C11.8501 18.305 12.3206 18.4999 12.8113 18.4999H21.3083L20.8199 24.0073L16.5113 24.9841L12.2045 24.0055L12.0269 22.0371C12.0082 21.7929 11.9413 21.5549 11.8299 21.3368C11.7186 21.1188 11.565 20.925 11.3782 20.7667C11.1914 20.6084 10.975 20.4887 10.7416 20.4147C10.5082 20.3407 10.2625 20.3137 10.0186 20.3354C9.77465 20.357 9.53748 20.4269 9.32079 20.541C9.10409 20.655 8.9122 20.8109 8.75622 20.9996C8.60024 21.1884 8.48328 21.4062 8.41213 21.6405C8.34097 21.8748 8.31704 22.1209 8.34171 22.3645L8.63771 25.676C8.67255 26.066 8.83008 26.4349 9.08768 26.7297C9.34528 27.0245 9.6897 27.2301 10.0715 27.317L16.1024 28.6859C16.3723 28.746 16.6521 28.746 16.922 28.6859L22.9529 27.317C23.335 27.23 23.6796 27.0241 23.9372 26.7289C24.1949 26.4338 24.3522 26.0645 24.3867 25.6742L25.1859 16.6684L25.1896 16.6499L25.1877 16.6425L25.8278 9.41275C25.8501 9.15716 25.8191 8.89972 25.7366 8.65676C25.6542 8.4138 25.5222 8.19062 25.3489 8.00138C25.1757 7.81213 24.965 7.66095 24.7302 7.55742C24.4955 7.45389 24.2418 7.40027 23.9852 7.39996H9.03916C8.54851 7.39996 8.07796 7.59487 7.73102 7.94181C7.38408 8.28875 7.18917 8.7593 7.18917 9.24995C7.18917 9.7406 7.38408 10.2112 7.73102 10.5581C8.07796 10.905 8.54851 11.0999 9.03916 11.0999ZM32.5377 0.603097C32.3644 0.413437 32.1535 0.261886 31.9185 0.158063C31.6834 0.0542404 31.4294 0.000414037 31.1724 3.1373e-09H1.8501C1.59311 -1.49626e-05 1.33893 0.0535131 1.10378 0.157172C0.868622 0.260832 0.657642 0.412348 0.484288 0.602064C0.310933 0.791779 0.179007 1.01553 0.096918 1.25906C0.0148292 1.50258 -0.0156212 1.76054 0.00750786 2.01649L2.67889 31.9752C2.71213 32.3495 2.85866 32.7048 3.09895 32.9936C3.33923 33.2825 3.66187 33.4913 4.02384 33.5921L15.9988 36.9314C16.3236 37.0229 16.6674 37.0229 16.9923 36.9314L28.9987 33.5792C29.361 33.4787 29.6841 33.27 29.9247 32.9811C30.1653 32.6922 30.3121 32.3368 30.3455 31.9623L33.015 2.01464C33.0375 1.75914 33.0066 1.50177 32.9245 1.2588C32.8423 1.01583 32.7106 0.792556 32.5377 0.603097ZM26.7732 30.3583L16.4946 33.2277L6.24937 30.3694L3.87399 3.69998H29.1523L26.7732 30.3583Z" fill="#377AB9"/>
</svg>
