<svg width="36" height="42" viewBox="0 0 36 42" fill="none" xmlns="http://www.w3.org/2000/svg">
<path d="M31.8041 2H4.19605C3.91766 2.00003 3.64234 2.05819 3.38772 2.17073C3.13309 2.28328 2.90477 2.44775 2.71736 2.65361C2.52995 2.85947 2.38758 3.10219 2.29936 3.36623C2.21114 3.63028 2.17902 3.90983 2.20505 4.187L4.89305 32.853C4.9256 33.2019 5.04925 33.5361 5.2516 33.8222C5.45396 34.1082 5.72792 34.3361 6.04605 34.483L17.1621 39.613C17.4248 39.7342 17.7107 39.797 18.0001 39.797C18.2894 39.797 18.5753 39.7342 18.8381 39.613L29.9541 34.483C30.2724 34.3363 30.5465 34.1084 30.7491 33.8224C30.9516 33.5363 31.0754 33.202 31.1081 32.853L33.795 4.187C33.8211 3.90983 33.789 3.63028 33.7007 3.36623C33.6125 3.10219 33.4702 2.85947 33.2827 2.65361C33.0953 2.44775 32.867 2.28328 32.6124 2.17073C32.3578 2.05819 32.0824 2.00003 31.8041 2Z" stroke="#377AB9" stroke-width="4"/>
<path d="M26 9H10L11 18H25L24 29L18 32L12 29L11.5 24" stroke="#377AB9" stroke-width="4" stroke-linecap="round" stroke-linejoin="round"/>
</svg>
