<svg width="33" height="37" viewBox="0 0 33 37" fill="none" xmlns="http://www.w3.org/2000/svg">
<path d="M8.53846 25.6154V31.3077C8.53846 32.44 8.08867 33.5259 7.28803 34.3265C6.48739 35.1271 5.4015 35.5769 4.26923 35.5769C3.13696 35.5769 2.05106 35.1271 1.25043 34.3265C0.449793 33.5259 1.68721e-08 32.44 0 31.3077C0 30.9303 0.149931 30.5683 0.41681 30.3014C0.683688 30.0345 1.04565 29.8846 1.42308 29.8846C1.8005 29.8846 2.16246 30.0345 2.42934 30.3014C2.69622 30.5683 2.84615 30.9303 2.84615 31.3077C2.84615 31.6851 2.99608 32.0471 3.26296 32.314C3.52984 32.5808 3.89181 32.7308 4.26923 32.7308C4.64665 32.7308 5.00862 32.5808 5.27549 32.314C5.54237 32.0471 5.6923 31.6851 5.6923 31.3077V25.6154C5.6923 25.238 5.84224 24.876 6.10911 24.6091C6.37599 24.3422 6.73796 24.1923 7.11538 24.1923C7.4928 24.1923 7.85477 24.3422 8.12165 24.6091C8.38853 24.876 8.53846 25.238 8.53846 25.6154ZM32.7308 11.4202V34.1538C32.7308 34.9087 32.4309 35.6326 31.8971 36.1664C31.3634 36.7001 30.6394 37 29.8846 37H25.6154C25.2379 37 24.876 36.8501 24.6091 36.5832C24.3422 36.3163 24.1923 35.9543 24.1923 35.5769C24.1923 35.1995 24.3422 34.8375 24.6091 34.5707C24.876 34.3038 25.2379 34.1538 25.6154 34.1538H29.8846V12.8077H21.3461C20.9687 12.8077 20.6068 12.6578 20.3399 12.3909C20.073 12.124 19.9231 11.7621 19.9231 11.3846V2.84618H4.26923V18.5C4.26923 18.8774 4.1193 19.2394 3.85242 19.5063C3.58554 19.7732 3.22358 19.9231 2.84615 19.9231C2.46873 19.9231 2.10676 19.7732 1.83989 19.5063C1.57301 19.2394 1.42308 18.8774 1.42308 18.5V2.84618C1.42308 2.09133 1.72294 1.3674 2.25669 0.833641C2.79045 0.299884 3.51438 2.29295e-05 4.26923 2.29295e-05H21.3461C21.7247 -0.00211161 22.089 0.14486 22.3601 0.409157L32.3038 10.3707C32.4404 10.5017 32.5487 10.6592 32.6221 10.8335C32.6955 11.0079 32.7325 11.1954 32.7308 11.3846V11.4202ZM22.7692 9.96156H27.8745L22.7692 4.85627V9.96156ZM15.9562 28.426C15.4048 28.2837 14.4264 28.0168 14.2308 27.7856V27.75C14.2308 27.163 14.6577 26.8606 15.476 26.8606C16.1116 26.8735 16.7297 27.0713 17.2548 27.4298H17.237C17.4952 27.6348 17.8146 27.7476 18.1442 27.75C18.5216 27.75 18.8836 27.6001 19.1505 27.3332C19.4174 27.0663 19.5673 26.7044 19.5673 26.3269C19.5708 26.1185 19.526 25.9122 19.4365 25.7239C19.347 25.5357 19.2152 25.3707 19.0514 25.2418C18.025 24.4543 16.7696 24.0234 15.476 24.0144C13.0745 24.0144 11.3846 25.5442 11.3846 27.75C11.3846 29.9558 13.6971 30.774 15.2269 31.1832C15.8317 31.3433 16.4721 31.5034 16.8635 31.7346C17.2548 31.9659 17.0769 31.9125 17.0769 32.0192C17.0769 32.126 17.0769 32.9087 15.476 32.9087C14.8403 32.8957 14.2222 32.6979 13.6971 32.3394H13.7149C13.4567 32.1344 13.1374 32.0217 12.8077 32.0192C12.4303 32.0192 12.0683 32.1692 11.8014 32.436C11.5345 32.7029 11.3846 33.0649 11.3846 33.4423C11.3811 33.6507 11.4259 33.8571 11.5154 34.0453C11.6049 34.2335 11.7367 34.3985 11.9005 34.5274C12.9269 35.3149 14.1823 35.7459 15.476 35.7548C18.251 35.7548 19.9231 34.3495 19.9231 32.0192C19.9231 29.6889 17.4327 28.8173 15.9562 28.426Z" fill="#377AB9"/>
</svg>
