<svg width="42" height="37" viewBox="0 0 42 37" fill="none" xmlns="http://www.w3.org/2000/svg">
<path d="M20.6795 14.8643C22.6608 14.8643 24.2767 16.4801 24.2767 18.5C24.2767 20.4237 22.6608 22.0588 20.6795 22.0588C18.6981 22.0588 17.0822 20.4237 17.0822 18.5C17.0822 16.4801 18.6981 14.8643 20.6795 14.8643ZM11.7729 33.8894C12.9848 34.6204 15.6394 33.5046 18.6981 30.6191C17.6978 29.4842 16.7167 28.253 15.7933 26.9641C14.2431 26.8158 12.702 26.5846 11.1765 26.2716C10.1955 30.3883 10.5609 33.2161 11.7729 33.8894M13.1387 22.8475L12.5808 21.8664C12.3692 22.4243 12.1576 22.9822 12.0229 23.5208C12.5423 23.6362 13.1194 23.7324 13.7158 23.8286L13.1387 22.8475ZM25.7195 21.3855L27.2776 18.5L25.7195 15.6145C25.1424 14.5949 24.5268 13.6908 23.9689 12.7867C22.9301 12.729 21.8337 12.729 20.6795 12.729C19.5253 12.729 18.4288 12.729 17.39 12.7867C16.8321 13.6908 16.2165 14.5949 15.6394 15.6145L14.0813 18.5L15.6394 21.3855C16.2165 22.405 16.8321 23.3092 17.39 24.2133C18.4288 24.271 19.5253 24.271 20.6795 24.271C21.8337 24.271 22.9301 24.271 23.9689 24.2133C24.5268 23.3092 25.1424 22.405 25.7195 21.3855M20.6795 8.45844C20.314 8.88165 19.9292 9.32409 19.5445 9.84348H21.8144C21.4297 9.32409 21.045 8.88165 20.6795 8.45844ZM20.6795 28.5416C21.045 28.1183 21.4297 27.6759 21.8144 27.1565H19.5445C19.9292 27.6759 20.314 28.1183 20.6795 28.5416ZM29.5668 3.11064C28.3741 2.37964 25.7195 3.49537 22.6608 6.38088C23.6611 7.51584 24.6422 8.74699 25.5656 10.0359C27.143 10.1897 28.7012 10.4206 30.1824 10.7284C31.1635 6.61172 30.798 3.78392 29.5668 3.11064ZM28.2202 14.1525L28.7781 15.1336C28.9897 14.5757 29.2013 14.0178 29.336 13.4792C28.8166 13.3638 28.2395 13.2676 27.6431 13.1714L28.2202 14.1525M31.0096 0.59063C33.8374 2.20651 34.1451 6.45782 32.9525 11.4209C37.8386 12.8636 41.3589 15.249 41.3589 18.5C41.3589 21.751 37.8386 24.1364 32.9525 25.5791C34.1451 30.5422 33.8374 34.7935 31.0096 36.4094C28.201 38.0253 24.3729 36.1785 20.6795 32.6582C16.986 36.1785 13.1579 38.0253 10.3301 36.4094C7.52155 34.7935 7.21376 30.5422 8.40644 25.5791C3.52032 24.1364 0 21.751 0 18.5C0 15.249 3.52032 12.8636 8.40644 11.4209C7.21376 6.45782 7.52155 2.20651 10.3301 0.59063C13.1579 -1.02525 16.986 0.82147 20.6795 4.34179C24.3729 0.82147 28.201 -1.02525 31.0096 0.59063ZM30.4517 18.5C31.1057 19.9428 31.6828 21.3855 32.1638 22.8475C36.2035 21.6356 38.4734 19.9043 38.4734 18.5C38.4734 17.0957 36.2035 15.3644 32.1638 14.1525C31.6828 15.6145 31.1057 17.0572 30.4517 18.5ZM10.9072 18.5C10.2532 17.0572 9.67606 15.6145 9.19514 14.1525C5.15544 15.3644 2.88551 17.0957 2.88551 18.5C2.88551 19.9043 5.15544 21.6356 9.19514 22.8475C9.67606 21.3855 10.2532 19.9428 10.9072 18.5ZM28.2202 22.8475L27.6431 23.8286C28.2395 23.7324 28.8166 23.6362 29.336 23.5208C29.2013 22.9822 28.9897 22.4243 28.7781 21.8664L28.2202 22.8475M22.6608 30.6191C25.7195 33.5046 28.3741 34.6204 29.5668 33.8894C30.798 33.2161 31.1635 30.3883 30.1824 26.2716C28.7012 26.5794 27.143 26.8103 25.5656 26.9641C24.6422 28.253 23.6611 29.4842 22.6608 30.6191M13.1387 14.1525L13.7158 13.1714C13.1194 13.2676 12.5423 13.3638 12.0229 13.4792C12.1576 14.0178 12.3692 14.5757 12.5808 15.1336L13.1387 14.1525ZM18.6981 6.38088C15.6394 3.49537 12.9848 2.37964 11.7729 3.11064C10.5609 3.78392 10.1955 6.61172 11.1765 10.7284C12.702 10.4154 14.2431 10.1842 15.7933 10.0359C16.7167 8.74699 17.6978 7.51584 18.6981 6.38088V6.38088Z" fill="#377AB9"/>
</svg>
