<svg width="16" height="37" viewBox="0 0 16 37" fill="none" xmlns="http://www.w3.org/2000/svg">
<path d="M7.94845 0C9.67597 0 11.0752 1.39924 11.0752 3.12676C11.0752 4.41455 10.295 5.52127 9.18054 6.00118L9.14663 6.01552V7.33268C9.14663 8.6042 10.0917 9.68671 11.3489 9.86355L11.3871 9.86858L11.7646 9.91781C13.8081 10.1763 15.392 11.6453 15.7982 13.6642C16.2044 15.683 15.3181 17.6527 13.5331 18.6867C12.734 19.1468 11.8634 19.4282 10.9448 19.5233L10.8988 19.5279L5.22385 20.0613C4.64528 20.1147 4.09949 20.2911 3.59481 20.5825C2.56483 21.1774 2.36378 22.2074 2.51969 22.9706C2.67411 23.7262 3.25076 24.5863 4.40492 24.7468L4.81759 24.8007C7.30375 25.1094 9.18265 27.2159 9.2199 29.7145L9.22052 29.7904V31.0132C10.3161 31.4974 11.0834 32.5971 11.0834 33.8732C11.0834 35.6007 9.68416 37 7.95664 37C6.22918 37 4.82988 35.6007 4.82988 33.8732C4.82988 32.5896 5.60609 31.4828 6.71654 31.0029L6.75026 30.9886V29.7904C6.75026 28.5189 5.80522 27.4364 4.54805 27.2595L4.50986 27.2546L4.13234 27.2053C2.0889 26.9468 0.504932 25.4777 0.0987272 23.4589C-0.311576 21.44 0.578822 19.4704 2.36384 18.4364C3.16296 17.9763 4.03349 17.6948 4.9522 17.5998L4.99815 17.5952L10.6731 17.0618C11.2517 17.0084 11.7974 16.832 12.3021 16.5407C13.3321 15.9456 13.5331 14.9157 13.3772 14.1525C13.2228 13.3969 12.6462 12.5367 11.492 12.3763L11.0793 12.3224C8.59315 12.0137 6.71431 9.9072 6.67699 7.40856L6.67637 7.33268V5.98268C5.58492 5.49439 4.82168 4.39878 4.82168 3.12676C4.82168 1.39924 6.22099 0 7.94845 0ZM11.7071 20.923L13.4593 22.8434C14.7632 24.2774 15.4881 26.1256 15.5025 28.0576L15.5027 28.1162H13.0284C13.0284 26.7919 12.5418 25.5239 11.6601 24.5391L11.6333 24.5093L8.65425 21.2431L11.0342 21.0174L11.1094 21.009C11.2877 20.9888 11.4657 20.9654 11.6414 20.9348L11.7072 20.923H11.7071ZM2.65101 8.91248C2.65101 10.2368 3.13763 11.5048 4.01933 12.4896L4.04616 12.5193L7.0334 15.7938L4.83404 16.0031L4.76866 16.0091C4.52917 16.0321 4.29005 16.0668 4.05646 16.1132L3.99282 16.1262L2.22426 14.1853C0.920327 12.7554 0.195404 10.9032 0.180999 8.97104L0.180813 8.91248H2.65101V8.91248Z" fill="#377AB9"/>
</svg>
