<svg width="37" height="37" viewBox="0 0 37 37" fill="none" xmlns="http://www.w3.org/2000/svg">
<path d="M9.27833 17.7661C9.1338 19.5859 10.7325 20.9262 11.8236 20.9262C12.9162 20.8753 17.1714 17.2894 17.1714 17.2894C19.1727 14.7583 19.1814 13.6328 19.1814 12.7482C19.0145 8.84278 11.8992 14.7912 9.27833 17.7661ZM26.8797 16.2544C27.8455 14.2103 26.5461 11.9399 23.7197 13.9341C21.4737 15.3616 18.5659 18.2984 17.1743 19.448C16.5288 20.7517 18.165 24.3296 20.7579 22.4405C23.8227 20.2139 26.0608 18.1201 26.8797 16.2544ZM29.5102 3.8889L30.1326 0H37V7.09894L34.4832 7.129L31.4527 17.3932C31.6414 21.0157 29.8044 21.0747 29.5697 22.7369C28.98 26.9145 24.3081 30.3328 22.5219 30.3328C21.3306 30.2983 20.4597 28.9329 20.1672 27.7431C23.5261 24.028 28.043 21.1084 28.043 21.1084C28.325 19.1545 27.7051 18.5324 29.7898 16.8675L31.7792 6.40794C30.0802 5.28601 29.2875 5.30343 29.5102 3.8889ZM16.1058 21.211C17.8476 24.7205 20.3642 24.812 24.2661 20.3439C24.3588 20.7569 24.4603 21.1897 24.274 22.2289C16.3367 29.3282 8.86078 36.2376 6.58521 37H0V35.2338C1.07098 33.7486 9.8605 26.499 16.1058 21.211ZM27.8366 28.0061C27.4792 31.0439 24.7096 33.7021 21.0088 37H9.27977L19.1677 28.671C20.8746 32.5557 23.9064 31.9929 27.8366 28.0061ZM13.9661 21.111L0 33.0148V25.2918L8.21877 18.6012C8.65843 21.0915 11.3518 23.2843 13.9661 21.111Z" fill="#377AB9"/>
</svg>
