<svg width="32" height="37" viewBox="0 0 32 37" fill="none" xmlns="http://www.w3.org/2000/svg">
<path d="M9.24999 25.6154C9.24999 25.9928 9.10006 26.3548 8.83319 26.6217C8.56631 26.8885 8.20434 27.0385 7.82692 27.0385H6.04807V34.1538C6.04807 34.5313 5.89814 34.8932 5.63126 35.1601C5.36439 35.427 5.00242 35.5769 4.625 35.5769C4.24757 35.5769 3.88561 35.427 3.61873 35.1601C3.35185 34.8932 3.20192 34.5313 3.20192 34.1538V27.0385H1.42308C1.04565 27.0385 0.683688 26.8885 0.41681 26.6217C0.149931 26.3548 0 25.9928 0 25.6154C0 25.238 0.149931 24.876 0.41681 24.6091C0.683688 24.3422 1.04565 24.1923 1.42308 24.1923H7.82692C8.20434 24.1923 8.56631 24.3422 8.83319 24.6091C9.10006 24.876 9.24999 25.238 9.24999 25.6154ZM31.3077 11.4202V34.1538C31.3077 34.9087 31.0078 35.6326 30.4741 36.1664C29.9403 36.7001 29.2164 37 28.4615 37H25.6154C25.2379 37 24.876 36.8501 24.6091 36.5832C24.3422 36.3163 24.1923 35.9543 24.1923 35.5769C24.1923 35.1995 24.3422 34.8375 24.6091 34.5707C24.876 34.3038 25.2379 34.1538 25.6154 34.1538H28.4615V12.8077H19.9231C19.5456 12.8077 19.1837 12.6578 18.9168 12.3909C18.6499 12.124 18.5 11.7621 18.5 11.3846V2.84618H2.84615V18.5C2.84615 18.8774 2.69622 19.2394 2.42934 19.5063C2.16246 19.7732 1.8005 19.9231 1.42308 19.9231C1.04565 19.9231 0.683688 19.7732 0.41681 19.5063C0.149931 19.2394 0 18.8774 0 18.5V2.84618C0 2.09133 0.299861 1.3674 0.833619 0.833641C1.36738 0.299884 2.09131 2.29295e-05 2.84615 2.29295e-05H19.9231C20.3017 -0.00211161 20.6659 0.14486 20.937 0.409157L30.8808 10.3707C31.0173 10.5017 31.1256 10.6592 31.199 10.8335C31.2724 11.0079 31.3094 11.1954 31.3077 11.3846V11.4202ZM21.3461 9.96156H26.4514L21.3461 4.85627V9.96156ZM15.9562 28.426C15.4048 28.2837 14.4264 28.0168 14.2308 27.7856V27.75C14.2308 27.163 14.6577 26.8606 15.476 26.8606C16.1116 26.8735 16.7297 27.0713 17.2548 27.4298H17.237C17.4952 27.6348 17.8146 27.7476 18.1442 27.75C18.5216 27.75 18.8836 27.6001 19.1505 27.3332C19.4174 27.0663 19.5673 26.7044 19.5673 26.3269C19.5708 26.1185 19.526 25.9122 19.4365 25.7239C19.347 25.5357 19.2152 25.3707 19.0514 25.2418C18.025 24.4543 16.7696 24.0234 15.476 24.0144C13.0745 24.0144 11.3846 25.5442 11.3846 27.75C11.3846 29.9558 13.6971 30.774 15.2269 31.1832C15.8317 31.3433 16.4721 31.5034 16.8635 31.7346C17.2548 31.9659 17.0769 31.9125 17.0769 32.0192C17.0769 32.126 17.0769 32.9087 15.476 32.9087C14.8403 32.8957 14.2222 32.6979 13.6971 32.3394H13.7149C13.4567 32.1344 13.1374 32.0217 12.8077 32.0192C12.4303 32.0192 12.0683 32.1692 11.8014 32.436C11.5345 32.7029 11.3846 33.0649 11.3846 33.4423C11.3811 33.6507 11.4259 33.8571 11.5154 34.0453C11.6049 34.2335 11.7367 34.3985 11.9005 34.5274C12.9269 35.3149 14.1823 35.7459 15.476 35.7548C18.251 35.7548 19.9231 34.3495 19.9231 32.0192C19.9231 29.6889 17.4327 28.8173 15.9562 28.426Z" fill="#377AB9"/>
</svg>
