<svg width="512" height="512" viewBox="0 0 512 512" fill="none" xmlns="http://www.w3.org/2000/svg">
<g clip-path="url(#clip0_52_690)">
<rect width="512" height="512" fill="#FFF511"/>
<path d="M119.742 427.273L159.971 474.54L146.561 490.089L132.569 474.54L73.0997 450.907L42.1992 481.382L15.3799 556.014L-13.7715 610.123V649.927H531.36L517.367 556.014L471.308 450.907L423.5 427.273L372.776 467.077L423.5 388.713V307.238L389.684 224.52L291.152 120.656H213.609L146.561 154.863L105.749 208.35L98.7529 264.946L119.742 427.273Z" fill="white"/>
<path d="M157.001 464.969C144.08 464.969 136.194 448.836 130.984 437.215C105.346 380.031 101.637 314.263 101.249 251.856C100.817 182.308 164.619 130.928 223.904 120.024C244.99 116.146 269.546 113.889 290.187 121.511C306.787 127.64 319.707 145.236 331.692 158.021C368.221 196.988 408.491 238.229 419.037 293.818C427.362 337.702 428.949 384.679 401.692 421.685C392.457 434.223 384.715 445.366 372.886 455.387C367.191 460.212 360.883 464.969 370.254 464.969C379.4 464.969 378.527 462.154 389.767 467.942" stroke="black" stroke-width="10.6219" stroke-linecap="round"/>
<path d="M243.418 289.523C235.774 298.696 237.843 325.704 237.843 337.432C237.843 348.716 237.27 362.669 248.994 366.838" stroke="black" stroke-width="10.6219" stroke-linecap="round"/>
<path d="M140.274 343.048C154.855 356.874 172.687 366.487 179.301 387.653" stroke="black" stroke-width="10.6219" stroke-linecap="round"/>
<path d="M345.363 325C345.363 340.574 337 356.275 337 372.579" stroke="black" stroke-width="10.6219" stroke-linecap="round"/>
<path d="M175.55 255.236C177.586 255.508 180.184 261.183 181.137 262.513C187.484 271.366 194.613 281.513 203.875 287.115C207.925 289.565 215.623 293.906 220.571 293.906C223.438 293.906 225.061 293.983 225.898 290.857C226.427 288.884 231.856 288.543 232.85 286.422" stroke="black" stroke-width="10.6219" stroke-linecap="round"/>
<path d="M172.043 247.752C174.415 250.001 177.228 250.247 180.294 250.247C183.953 250.247 194.318 248.15 191.273 250.316C188.143 252.542 200.643 266.499 202.057 268.612C204.648 272.481 211.282 278.938 211.282 278.938C211.282 278.938 202.593 270.183 198.159 265.909C192.51 260.463 189.615 256.071 185.166 249.969C179.021 241.542 200.762 263.418 207.839 270.968C213.348 276.844 217.67 284.87 225.315 286.353C231.133 287.481 237.109 287.891 242.986 288.64C246.207 289.05 244.374 288.275 244.545 285.175C244.64 283.443 245.829 282.395 245.714 280.185C245.61 278.175 243.422 275.823 244.805 278.938C246.393 282.515 252.876 291.412 256.888 291.412C260.468 291.412 262.025 290.81 265.334 289.471C274.888 285.606 284.832 283.266 294.114 278.591C305.186 273.013 317.417 257.602 324.063 246.781C327.007 241.989 325.435 242.063 321.724 239.99C320.752 239.447 314.239 233.838 313.799 234.307C312.42 235.778 311.648 244.664 311.135 247.128C310.773 248.864 307.998 251.693 307.042 253.296C304.524 257.517 300.433 259.759 296.583 262.166C284.588 269.667 274.286 281.432 259.747 281.432" stroke="black" stroke-width="10.6219" stroke-linecap="round"/>
<path d="M264.424 296.401C259.783 301.971 264.467 314.431 265.528 320.657C267.018 329.398 279.009 330.41 285.473 330.082C288.19 329.944 294.853 322.553 296.387 320.172C299.126 315.922 297.167 307.057 297.167 302.015C297.167 295.35 297.544 288.475 294.828 282.68" stroke="black" stroke-width="10.6219" stroke-linecap="round"/>
<path d="M271.439 298.896C271.439 304.499 272.931 310.123 279.04 310.123C280.98 310.123 283.153 310.656 284.563 309.153C287.04 306.51 278.539 312.492 277.481 313.103C276.039 313.936 270.768 314.703 271.569 317.053C273.368 322.329 278.741 325.217 283.523 325.092C286.155 325.024 286.641 323.151 286.641 320.726C286.641 318.003 283.88 318.855 281.964 318.855" stroke="black" stroke-width="10.6219" stroke-linecap="round"/>
<path d="M196.599 293.907C196.599 308.195 204.727 334.846 222.26 332.508C227.149 331.856 231.171 319.971 232.2 315.737C233.967 308.468 232.85 303.576 232.85 296.402" stroke="black" stroke-width="10.6219" stroke-linecap="round"/>
<path d="M202.447 311.371C203.017 316.233 211.913 319.819 215.57 321.073C216.26 321.309 220.82 321.25 218.559 321.35C216.448 321.444 214.455 323.331 212.322 322.32C207.99 320.267 205.376 314.514 212.712 317.608C217.185 319.494 219.935 320.103 224.666 320.103" stroke="black" stroke-width="10.6219" stroke-linecap="round"/>
<path d="M223.494 398.691C226.792 400.45 230.691 401.537 233.759 403.681C236.72 405.75 238.502 409.528 241.944 410.888C248.501 413.478 252.973 406.993 257.861 403.819C266.49 398.216 273.91 392.089 280.274 383.514C281.966 381.235 284.148 374.99 287.226 374.99C289.611 374.99 290.919 372.921 292.488 371.247" stroke="black" stroke-width="10.6219" stroke-linecap="round"/>
<path d="M283.678 490C288.129 490.528 288.14 496.161 291.863 497.485" stroke="black" stroke-width="10.6219" stroke-linecap="round"/>
<path d="M279 503.722C281.657 504.076 287.497 513.452 288.355 516.196" stroke="black" stroke-width="10.6219" stroke-linecap="round"/>
<path d="M217.4 152.8C217.158 149.124 214.167 143.94 213.081 140.828C212.163 138.198 212.024 136.654 212.024 133.754C212.024 130.838 211.894 127.178 212.713 124.503C213.757 121.096 216.229 117.699 217.813 115.019C222.67 106.802 228.73 104.193 235.363 102.426C240.926 100.945 248.234 100.197 253.396 104.564C255.609 106.436 257.559 109.733 259.759 111.871C262.742 114.771 265.872 116.954 268.924 119.606C278.022 127.511 287.705 132.993 297.822 135.659C306.005 137.815 313.355 137.685 321.368 133.91C326.109 131.675 330.223 129.356 333.566 123.026C338.376 113.919 344.037 104.955 347.9 94.6524C350.442 87.8715 350.128 78.6854 350.128 70.9426" stroke="black" stroke-width="10.6219" stroke-linecap="round"/>
<path d="M160.347 202.844C160.347 204.713 159.983 205.768 161.517 206.586" stroke="black" stroke-width="10.6219" stroke-linecap="round"/>
<path d="M173.212 196.607V200.349" stroke="black" stroke-width="10.6219" stroke-linecap="round"/>
<path d="M49.9496 361C47.9592 364.61 44.0717 366.819 40.9793 369.124C33.6164 374.611 24.8513 379.442 18.8867 386.905C16.8306 389.478 7.21833 403.777 12.6331 406.504C16.6028 408.504 20.1911 409.538 24.5764 410.595C32.7793 412.571 43.3499 406.791 51.0773 404.63C70.9161 399.082 89.8817 390.559 109 383.497" stroke="black" stroke-width="10.6219" stroke-linecap="round"/>
<path d="M396 270C398.002 270 400.157 268.714 402.08 268.181C419.474 263.36 436.372 256.463 453.723 251.401C463.83 248.453 475.232 247.741 484.648 242.556C490.142 239.531 495.304 236.06 501.012 233.546C507.419 230.724 506.058 225.53 505.44 219.411C505.279 217.811 501.44 214.156 500.186 213.625C497.692 212.568 495.955 210.953 493.205 210.112C489.909 209.103 474.511 204.953 473.014 208.252" stroke="black" stroke-width="10.6219" stroke-linecap="round"/>
<path d="M42.8993 314.277C42.8321 313.61 41.0657 312.561 40.7579 312.327C36.2772 308.922 30.6757 306.76 25.3842 307.289C22.9139 307.536 20.8866 309.087 19.1094 311.143C18.094 312.318 16.8266 313.782 16.2572 315.403C15.5705 317.359 16.4041 320.292 17.0614 322.102C17.6122 323.618 18.056 325.101 19.0626 326.258C20.6945 328.134 23.8994 328.125 25.9172 327.895C27.9841 327.659 29.7004 324.994 31.0044 323.263C33.2081 320.337 35.3298 317.357 37.8122 314.777C41.2922 311.159 45.7069 309.003 50.0812 307.684C55.7692 305.967 61.6878 305.686 67.5123 306.29C69.1774 306.463 70.0174 307.371 69.9997 309.495C69.9745 312.533 68.234 315.24 67.0634 317.783C65.774 320.585 64.2017 323.381 61.9388 325.074C60.5994 326.076 58.6349 327.102 57.0761 326.304C55.3545 325.423 53.8244 323.419 52.6248 321.754C51.4904 320.178 50.3429 318.526 49.4266 316.738C49.0857 316.073 48.6333 315.322 47.9491 315.322" stroke="black" stroke-width="10.6219" stroke-linecap="round"/>
<path d="M449.128 144.266C449.045 143.438 446.87 142.137 446.491 141.847C440.973 137.623 434.074 134.943 427.557 135.598C424.515 135.904 422.018 137.829 419.829 140.379C418.579 141.835 417.018 143.651 416.317 145.663C415.471 148.088 416.498 151.726 417.307 153.97C417.985 155.851 418.532 157.69 419.772 159.125C421.781 161.451 425.729 161.44 428.214 161.155C430.759 160.863 432.873 157.557 434.479 155.41C437.193 151.781 439.806 148.086 442.863 144.885C447.149 140.398 452.586 137.725 457.973 136.088C464.978 133.959 472.267 133.61 479.44 134.36C481.491 134.575 482.526 135.7 482.504 138.334C482.473 142.102 480.329 145.46 478.888 148.614C477.3 152.089 475.363 155.557 472.576 157.656C470.927 158.899 468.507 160.172 466.588 159.182C464.467 158.089 462.583 155.604 461.106 153.538C459.708 151.585 458.295 149.535 457.167 147.318C456.747 146.494 456.19 145.562 455.347 145.562" stroke="black" stroke-width="10.6219" stroke-linecap="round"/>
<path d="M153.194 492.691C136.166 469.985 111.056 456.149 83.8907 456.149C69.72 456.149 59.9016 457.382 50.0321 469.768C28.9266 496.255 19.1855 534.981 10.2264 567.634C4.76422 587.542 -8.13784 604.11 -11.6588 624.392C-12.8285 631.13 -12.3724 638.112 -12.3724 644.946" stroke="black" stroke-width="10.6219" stroke-linecap="round"/>
<path d="M364.434 495.736C369.683 482.857 372.332 474.262 382.988 465.623C394.629 456.186 406.128 442.453 419.781 436.356C427.693 432.823 432.288 433.096 440.239 436.694C451.598 441.835 473.467 445.461 478.617 459.194C485.015 476.257 493.782 491.958 499.868 509.27C507.884 532.072 516.481 554.435 522.07 578.123C528.706 606.245 527.681 634.689 531.11 663.217C531.843 669.315 533.591 672.67 531.427 678.442" stroke="black" stroke-width="10.6219" stroke-linecap="round"/>
<path d="M13 93C23.4178 94.7716 32.2739 104.41 39.8795 111.653C51.1745 122.409 64.7432 133.103 73.8327 146.391C80.2663 155.796 85.9692 162.855 94.8512 169.4" stroke="white" stroke-width="10.6219" stroke-linecap="round"/>
<path d="M101 27C103.565 34.4367 109.647 41.7281 111.231 48.8285" stroke="white" stroke-width="10.6219" stroke-linecap="round"/>
<path d="M117 65C130.804 83.3578 140.473 102.621 147.694 125.028" stroke="white" stroke-width="10.6219" stroke-linecap="round"/>
<path d="M242.711 10.9143C242.711 32.6839 242.711 54.5031 242.711 76.3999" stroke="white" stroke-width="10.6219" stroke-linecap="round"/>
<path d="M411.529 49.1141C407.5 49.1141 396.182 74.4891 396.182 81.8569" stroke="white" stroke-width="10.6219" stroke-linecap="round"/>
<path d="M375.719 103.686C368.849 111.93 359.841 121.188 355.256 130.971" stroke="white" stroke-width="10.6219" stroke-linecap="round"/>
<path d="M345.025 152.8C344.518 158.487 337.955 166.221 334.794 169.171" stroke="black" stroke-width="10.6219" stroke-linecap="round"/>
<path d="M482.851 49C479.391 49.4738 475.014 58.1723 472.966 60.8021C463.656 72.757 456.075 86.0951 446.671 97.9409C430.81 117.919 415.482 136.993 401 158.143" stroke="white" stroke-width="10.6219" stroke-linecap="round"/>
<path d="M524.075 300.142C499.929 298.882 476.852 289.228 452.455 289.228" stroke="white" stroke-width="10.6219" stroke-linecap="round"/>
<path d="M-23.3057 338.342C-18.6118 338.342 -4.06008 338.342 2.27285 338.342" stroke="white" stroke-width="10.6219" stroke-linecap="round"/>
<path d="M66.917 245.632C65.753 240.394 50.4271 238.246 46.9071 237.277C34.7886 233.943 23.8665 229.907 12.2508 225.261C6.14943 222.82 1.37319 219.749 -3.83963 215.926C-7.49294 213.247 -11.9 212.637 -15.7012 210.357" stroke="white" stroke-width="11" stroke-linecap="round"/>
</g>
<defs>
<clipPath id="clip0_52_690">
<rect width="512" height="512" fill="white"/>
</clipPath>
</defs>
</svg>
