<svg width="60" height="79" viewBox="0 0 60 79" fill="none" xmlns="http://www.w3.org/2000/svg">
<path d="M30 18.7537C37.9565 18.7537 45.5871 21.9145 51.2132 27.5405C56.8393 33.1666 60 40.7973 60 48.7538C60 56.7102 56.8393 64.3409 51.2132 69.967C45.5871 75.593 37.9565 78.7537 30 78.7537C22.0435 78.7537 14.4129 75.593 8.7868 69.967C3.16071 64.3409 0 56.7102 0 48.7538C0 40.7973 3.16071 33.1666 8.7868 27.5405C14.4129 21.9145 22.0435 18.7537 30 18.7537V18.7537ZM30 26.2537C24.0326 26.2537 18.3097 28.6243 14.0901 32.8438C9.87053 37.0634 7.5 42.7864 7.5 48.7538C7.5 54.7211 9.87053 60.4441 14.0901 64.6637C18.3097 68.8832 24.0326 71.2537 30 71.2537C35.9674 71.2537 41.6903 68.8832 45.9099 64.6637C50.1295 60.4441 52.5 54.7211 52.5 48.7538C52.5 42.7864 50.1295 37.0634 45.9099 32.8438C41.6903 28.6243 35.9674 26.2537 30 26.2537ZM30 31.8788L34.9612 41.9288L46.05 43.5413L38.025 51.36L39.9188 62.4075L30 57.1913L20.0812 62.4037L21.975 51.36L13.95 43.5375L25.0388 41.925L30 31.8788ZM52.5 0.00375018V11.2537L47.3887 15.5212C43.1473 13.2959 38.5165 11.9094 33.75 11.4375V0.00375018H52.5ZM26.25 0V11.4375C21.485 11.9087 16.8556 13.2939 12.615 15.5175L7.5 11.2537V0.00375018L26.25 0Z" fill="#377AB9"/>
</svg>
