<svg width="49" height="34" viewBox="0 0 49 34" fill="none" xmlns="http://www.w3.org/2000/svg">
<path d="M28.2939 27.6234C36.4134 25.4574 42.3172 18.1755 42.5559 8.98883C42.6729 4.46528 47.6671 6.40394 48.0769 1C45.5505 2.82158 43.3777 1 41.2476 3.2539" stroke="#377AB9" stroke-width="1.5" stroke-miterlimit="10" stroke-linecap="round" stroke-linejoin="round"/>
<path d="M42.0264 4.34819C39.8739 0.707287 38.1806 3.02648 35.625 1C35.8007 5.43574 38.5184 4.16806 39.3245 6.69666C40.2049 9.45717 33.8034 11.2788 31.2186 8.98658C28.6945 13.1003 -0.0297472 4.40674 1.02853 12.2785C2.20613 21.0396 11.6158 27.4726 21.6468 28.2269C21.8157 28.2404 21.9846 28.2494 22.1512 28.2584" stroke="#377AB9" stroke-width="1.5" stroke-miterlimit="10" stroke-linecap="round" stroke-linejoin="round"/>
<path d="M25.4044 19.0919C29.3403 23.0278 26.3433 26.1395 29.6015 29.7242C31.8171 32.1627 29.8109 34.0113 25.4044 31.7799C18.8926 28.4812 23.0402 19.9835 20.5296 16.9776C18.2284 14.2238 12.4822 17.9751 8.01721 13.6294C4.28849 9.99751 0.969564 10.3983 1.02811 12.2784" stroke="#377AB9" stroke-width="1.5" stroke-miterlimit="10" stroke-linecap="round" stroke-linejoin="round"/>
<path d="M9.99929 24.5769C9.81691 25.5969 9.44088 26.6236 8.46817 27.6954C6.39441 29.9763 8.27228 31.7079 12.395 29.6206C13.7573 28.9293 14.6219 27.9949 15.1691 26.9299" stroke="#377AB9" stroke-width="1.5" stroke-miterlimit="10" stroke-linecap="round" stroke-linejoin="round"/>
<path d="M3.14258 13.1589C3.14258 13.1589 8.23579 25.2705 21.6578 26.4166" stroke="#377AB9" stroke-width="1.5" stroke-miterlimit="10" stroke-linecap="round" stroke-linejoin="round"/>
<path d="M7.38672 15.5142C8.89532 17.5992 13.3558 22.7667 21.4685 24.3496" stroke="#377AB9" stroke-width="1.5" stroke-miterlimit="10" stroke-linecap="round" stroke-linejoin="round"/>
<path d="M12.791 17.741C12.791 17.741 16.9093 21.0892 21.4576 22.2352" stroke="#377AB9" stroke-width="1.5" stroke-miterlimit="10" stroke-linecap="round" stroke-linejoin="round"/>
<path d="M17.7246 18.1802C17.7246 18.1802 18.8054 19.0583 21.4151 19.7878" stroke="#377AB9" stroke-width="1.5" stroke-miterlimit="10" stroke-linecap="round" stroke-linejoin="round"/>
<path d="M24.4204 16.4103C24.9999 16.4103 25.4696 15.9405 25.4696 15.361C25.4696 14.7815 24.9999 14.3118 24.4204 14.3118C23.8409 14.3118 23.3711 14.7815 23.3711 15.361C23.3711 15.9405 23.8409 16.4103 24.4204 16.4103Z" fill="#377AB9"/>
</svg>
